Coordinates
version=1
nRows=8
nColumns=36
inDegrees=yes

Units are S.I. units (second, meters, Newtons, ...)
If the header above contains a line with 'inDegrees', this indicates whether rotational values are in degrees (yes) or radians (no).

endheader
time	pelvis_tilt	pelvis_list	pelvis_rotation	pelvis_tx	pelvis_ty	pelvis_tz	hip_flexion_r	hip_adduction_r	hip_rotation_r	knee_angle_r	knee_angle_r_beta	ankle_angle_r	subtalar_angle_r	mtp_angle_r	hip_flexion_l	hip_adduction_l	hip_rotation_l	knee_angle_l	knee_angle_l_beta	ankle_angle_l	subtalar_angle_l	mtp_angle_l	lumbar_extension	lumbar_bending	lumbar_rotation	arm_flex_r	arm_add_r	arm_rot_r	elbow_flex_r	pro_sup_r	arm_flex_l	arm_add_l	arm_rot_l	elbow_flex_l	pro_sup_l
      0.98333330	    -24.29623170	     -2.31456360	      6.37576337	     -0.78779381	      1.09170403	     -0.07158436	     43.10569992	     -8.89215444	    -12.32193262	     61.82409058	      1.07903394	     36.13356894	      1.32682872	     -7.49999987	     48.44070803	     -5.59987480	      2.85999930	     58.89324886	      1.02788110	     30.93168293	      5.67375396	     -7.49999987	    -25.00533407	      6.57465330	     -5.25353027	     55.50261786	    -24.88877668	     24.71195873	     60.24212225	     82.13086970	     57.87253339	    -11.99854351	     26.15737098	     66.27818764	     72.32592321
      0.98750000	    -24.71973613	     -2.51944310	      5.83420578	     -0.78659789	      1.09453180	     -0.07187735	     43.64048064	     -8.40588932	    -12.05436828	     61.61837140	      1.07544346	     35.82449347	      0.60672752	     -7.49999987	     48.95430199	     -6.15011296	      2.93394826	     59.29900142	      1.03496282	     30.82036594	      5.42010629	     -7.49999987	    -24.59094220	      6.27035377	     -5.23790802	     57.52993577	    -23.97826121	     25.50715554	     61.59517503	     82.44689085	     61.37739952	    -11.78994928	     26.40559555	     64.00269588	     71.17269241
      0.99166670	    -25.20177189	     -2.39379233	      5.01129660	     -0.77982888	      1.09376367	     -0.07597231	     43.89126050	     -8.26078724	    -11.39299457	     61.46138630	      1.07270355	     34.97837567	     -0.00241148	     -7.49999987	     49.04800655	     -6.27154948	      2.82524240	     59.42895881	      1.03723100	     30.97928002	      5.36243429	     -7.49999987	    -23.67621153	      5.92703897	     -5.02548011	     58.37872060	    -23.52972922	     26.40023789	     62.56689404	     82.68334947	     63.12559399	    -11.07674705	     26.26950592	     62.29980708	     70.45636501
      0.99583330	    -25.59088926	     -2.20232464	      4.45645625	     -0.77908017	      1.09278133	     -0.07594932	     44.00371570	     -8.33947381	    -10.97208002	     61.12461233	      1.06682574	     34.67923546	     -0.25904511	     -7.49999987	     49.04333332	     -6.12128538	      2.69987301	     59.47199919	      1.03798220	     30.88989958	      4.92070703	     -7.49999987	    -22.39835856	      5.34671252	     -4.73417526	     58.82081963	    -23.13554367	     26.22503094	     63.58639451	     81.17993587	     64.17755426	    -10.69377106	     25.90316892	     63.37601793	     69.54902703
      1.00000000	    -26.06850628	     -2.11176841	      3.85267445	     -0.77827200	      1.08509637	     -0.07516148	     44.74220820	     -8.38949566	    -10.62746492	     61.57189380	      1.07463227	     34.27514952	     -1.17014554	     -7.49999987	     49.49001386	     -6.22636866	      2.71589554	     59.93507714	      1.04606443	     31.14546025	      4.34558361	     -7.49999987	    -20.68422871	      4.75606910	     -4.19695275	     59.46206426	    -23.26471594	     25.12237331	     64.92215549	     79.10830438	     65.70716541	    -10.01355064	     25.14907147	     65.72245687	     68.44781360
      1.00416670	    -26.90769244	     -2.13568530	      3.43130287	     -0.77769956	      1.08454532	     -0.07506197	     45.87754924	     -8.45157985	    -10.44760383	     61.98286785	      1.08180512	     33.45332746	     -2.43066746	     -7.49999987	     50.33690795	     -6.35151971	      2.58686467	     60.43129487	      1.05472507	     31.50388778	      4.34177723	     -7.49999987	    -18.92088286	      4.34269150	     -3.49314409	     59.72360659	    -23.19173362	     22.09930035	     66.66404590	     82.08099339	     67.35224333	     -9.05204055	     26.15010652	     68.74949129	     65.05734449
      1.00833330	    -27.32721444	     -2.14042307	      2.94344233	     -0.77662664	      1.09146176	     -0.07471722	     46.23920397	     -8.09314017	    -10.33411959	     61.45819042	      1.07264778	     33.33693448	     -2.02850082	     -7.49999987	     50.30350606	     -6.53891515	      2.41528646	     59.91233572	      1.04566752	     31.12274149	      4.00161368	     -7.49999987	    -17.72741645	      3.98412633	     -2.57070613	     61.28255507	    -23.20221316	     21.60309638	     66.16592545	     81.98137923	     69.46295089	     -7.45759774	     26.62830559	     71.26147449	     65.10630919
      1.01250000	    -27.31350958	     -2.01538228	      2.47364013	     -0.77014784	      1.09167803	     -0.07035316	     45.99989718	     -7.67682566	    -10.00298474	     60.87176317	      1.06241269	     32.95141998	     -1.77184059	     -7.49999987	     49.24708370	     -7.04409909	      1.80379139	     58.76243452	      1.02559796	     30.91245841	      4.41190895	     -7.49999987	    -17.16514796	      3.33075253	     -2.99181423	     62.67662157	    -21.79804486	     21.07328681	     66.19569581	     81.77556034	     72.08240854	     -8.36321990	     28.94832282	     74.59452749	     65.16584549
